<svg width="17" height="17" viewBox="0 0 17 17" fill="none" xmlns="http://www.w3.org/2000/svg">
<path d="M5.8963 16.1852C6.28494 16.1852 6.6 15.8701 6.6 15.4815V11.1765C6.6 10.7878 6.91506 10.4728 7.3037 10.4728H9.6963C10.0849 10.4728 10.4 10.7878 10.4 11.1765V15.4815C10.4 15.8701 10.7151 16.1852 11.1037 16.1852H14.4463C14.8349 16.1852 15.15 15.8701 15.15 15.4815V9.27233C15.15 8.88369 15.4651 8.56863 15.8537 8.56863H16.1691C16.8137 8.56863 17.1191 7.77408 16.6405 7.34237L8.97132 0.425112C8.70353 0.183572 8.29647 0.183572 8.02868 0.425111L0.359543 7.34237C-0.119087 7.77408 0.186301 8.56863 0.83086 8.56863H1.1463C1.53494 8.56863 1.85 8.88369 1.85 9.27233V15.4815C1.85 15.8701 2.16506 16.1852 2.5537 16.1852H5.8963Z" fill="#FAFAFA"/>
</svg>
