<svg width="20" height="19" viewBox="0 0 20 19" fill="none" xmlns="http://www.w3.org/2000/svg">
<path d="M17.35 0H5.95C4.905 0 4.05 0.855 4.05 1.9V13.3C4.05 14.345 4.905 15.2 5.95 15.2H17.35C18.395 15.2 19.25 14.345 19.25 13.3V1.9C19.25 0.855 18.395 0 17.35 0ZM15.45 3.8C15.45 4.32467 15.0247 4.75 14.5 4.75H13.6C13.0477 4.75 12.6 5.19772 12.6 5.75V9.975C12.6 11.286 11.536 12.35 10.225 12.35C8.914 12.35 7.85 11.286 7.85 9.975C7.85 8.664 8.914 7.6 10.225 7.6C10.8531 7.6 11.65 7.18007 11.65 6.55194V3.85C11.65 3.29772 12.0977 2.85 12.65 2.85H14.5C15.0247 2.85 15.45 3.27533 15.45 3.8ZM2.15 4.75C2.15 4.22533 1.72467 3.8 1.2 3.8C0.675329 3.8 0.25 4.22533 0.25 4.75V17.1C0.25 18.145 1.105 19 2.15 19H14.5C15.0247 19 15.45 18.5747 15.45 18.05C15.45 17.5253 15.0247 17.1 14.5 17.1H3.15C2.59772 17.1 2.15 16.6523 2.15 16.1V4.75Z" fill="#FAFAFA"/>
</svg>
