<svg width="21" height="20" viewBox="0 0 21 20" fill="none" xmlns="http://www.w3.org/2000/svg">
<ellipse cx="10.75" cy="4.5" rx="5" ry="4.5" fill="#FAFAFA"/>
<path fill-rule="evenodd" clip-rule="evenodd" d="M10.75 15C12.4069 15 13.75 13.8807 13.75 12.5C13.75 12.413 13.7447 12.327 13.7343 12.2423C17.7995 12.9056 20.75 14.7823 20.75 16C20.75 16.8284 16.2728 18 10.75 18C5.22715 18 0.75 16.8284 0.75 16C0.75 14.7823 3.70051 12.9056 7.76574 12.2423C7.75533 12.327 7.75 12.413 7.75 12.5C7.75 13.8807 9.09315 15 10.75 15Z" fill="#FAFAFA"/>
<path d="M0.75 16H20.75V20H0.750004L0.75 16Z" fill="#FAFAFA"/>
</svg>
